<?xml version="1.0" encoding="UTF-8" standalone="no"?>
<!-- Generator: Adobe Illustrator 21.0.0, SVG Export Plug-In . SVG Version: 6.00 Build 0)  -->

<svg
   xmlns:dc="http://purl.org/dc/elements/1.1/"
   xmlns:cc="http://creativecommons.org/ns#"
   xmlns:rdf="http://www.w3.org/1999/02/22-rdf-syntax-ns#"
   xmlns:svg="http://www.w3.org/2000/svg"
   xmlns="http://www.w3.org/2000/svg"
   xmlns:sodipodi="http://sodipodi.sourceforge.net/DTD/sodipodi-0.dtd"
   xmlns:inkscape="http://www.inkscape.org/namespaces/inkscape"
   version="1.1"
   id="Layer_1"
   x="0px"
   y="0px"
   viewBox="0 0 167.38508 237.0608"
   xml:space="preserve"
   sodipodi:docname="Kaart-Logo-2.svg"
   width="167.38507"
   height="237.06081"
   inkscape:version="0.92.2 5c3e80d, 2017-08-06"><metadata
     id="metadata3877"><rdf:RDF><cc:Work
         rdf:about=""><dc:format>image/svg+xml</dc:format><dc:type
           rdf:resource="http://purl.org/dc/dcmitype/StillImage" /><dc:title></dc:title></cc:Work></rdf:RDF></metadata><defs
     id="defs3875" /><sodipodi:namedview
     pagecolor="#ffffff"
     bordercolor="#666666"
     borderopacity="1"
     objecttolerance="10"
     gridtolerance="10"
     guidetolerance="10"
     inkscape:pageopacity="0"
     inkscape:pageshadow="2"
     inkscape:window-width="1788"
     inkscape:window-height="946"
     id="namedview3873"
     showgrid="false"
     showguides="false"
     inkscape:zoom="1.706337"
     inkscape:cx="411.22895"
     inkscape:cy="82.738657"
     inkscape:window-x="0"
     inkscape:window-y="72"
     inkscape:window-maximized="0"
     inkscape:current-layer="g3870" /><style
     type="text/css"
     id="style3808">
	.st0{fill:#101820;}
	.st1{fill:#3B7C3B;}
	.st2{fill:#0E58A4;}
	.st3{fill:#522A17;}
</style><g
     id="g3870"
     transform="translate(-0.0237288,-0.03919633)"><g
       id="g3868"><polygon
         class="st1"
         points="122,152.9 84.5,217.3 47,152.9 84,167.9 "
         id="polygon3822"
         style="fill:#3b7c3b" /><path
         class="st2"
         d="m 83.1,225.6 c 0,0 -70.4,-105.4 -70.4,-144.6 0,-39.2 35.9,-68.8 70.4,-68.8 34.5,0 73.6,30.5 72.1,72.1 0,29.9 -70.7,141.3 -70.7,141.3 0,0 82.2,-94.3 82.9,-141.6 C 168.1,36.7 126.9,-1.7 83.3,0.1 39.7,2 3.1,29.3 0.1,80.7 c -3,51.4 83.5,141 83,144.9 z"
         id="path3824"
         inkscape:connector-curvature="0"
         style="fill:#0e58a4" /><ellipse
         class="st1"
         cx="83.800003"
         cy="232.2"
         rx="41.700001"
         ry="4.9000001"
         id="ellipse3826"
         style="fill:#3b7c3b" /><g
         id="g3830"><path
           class="st3"
           d="m 142,73 c -1,-1 -0.4,-2.3 -0.7,-3.4 -0.9,-2.8 -1.8,-5.5 -2.7,-8.3 -0.5,-1.3 -0.9,-2.7 -1.6,-3.9 -0.6,-1.1 -1.6,-2.1 -2.4,-3.1 0.3,-0.2 0.4,-0.4 0.5,-0.5 -2.4,-4.2 -4.9,-8.1 -8.5,-11.4 -0.3,-0.2 -0.4,-0.6 -0.7,-0.9 -0.8,-0.9 -1.4,-2.1 -2.4,-2.7 -1.9,-1 -3.3,-2.5 -5,-3.7 -0.1,0.2 -0.2,0.3 -0.4,0.5 -0.1,-0.1 -0.1,-0.1 -0.2,-0.2 0.2,-0.1 0.3,-0.3 0.5,-0.4 l 0.1,0.1 c -0.2,-0.3 -0.2,-0.6 -0.4,-0.7 -3.5,-2.3 -6.9,-4.9 -10.9,-6.3 -1.5,-0.6 -2.9,-1.8 -4.7,-1.6 0,0.9 -0.7,0.5 -1.1,0.6 -0.1,0.2 -0.2,0.3 -0.4,0.5 -0.1,-0.1 -0.1,-0.1 -0.2,-0.2 0.2,-0.1 0.3,-0.3 0.5,-0.4 l 0.1,0.1 c 0,-0.9 0.7,-0.5 1.1,-0.6 C 102.4,26.3 102.4,26 102.3,26 99.7,25.7 97.5,23.9 94.8,24.2 94,22.9 92.6,23.9 91.4,23.3 90.4,22.7 88.8,23.2 87.5,23 86.3,22.9 85.3,22.3 84,22.4 c -2.1,0.3 -4.2,-0.2 -6.4,0.5 -1.6,0.5 -3.5,-0.2 -5.2,0.7 -3.7,-0.2 -7,1.6 -10.4,2.5 -3.4,0.9 -6.4,2.8 -9.6,4.4 -0.4,0.2 -0.8,0.6 -0.9,1 -0.4,2 -1.8,3.3 -3.2,4.7 -0.2,-0.2 -0.4,-0.4 -0.5,-0.4 -2.2,0.8 -3.4,2.6 -4.4,4.3 -0.6,0.1 -1.1,0.2 -1.9,0.3 0.4,0.6 0.7,1 1,1.5 0.5,-0.4 0.9,-0.8 1.2,-1.2 0.3,0.3 0.5,0.5 0.8,0.8 0.3,1.3 -0.2,2.3 -0.9,3.3 -0.9,1.2 -1.8,2.5 -1.9,4.1 0,0.1 -0.2,0.2 -0.3,0.3 -0.2,-0.2 -0.4,-0.3 -0.8,-0.7 0,0.6 0,1 0,1.3 0.2,0.1 0.3,0.3 0.5,0.4 -0.2,0.1 -0.3,0.1 -0.5,0.2 -0.6,2.2 -1.8,4.2 -2.3,6.5 -0.2,0.9 -1.1,1.6 -1.7,2.4 -1.9,2.9 -3.1,6.1 -2.8,9.7 0.1,1 0.8,1.9 0.5,2.9 -0.2,0.7 -0.5,1.4 -0.5,2.1 0,0.7 0.5,1.4 0.5,2.1 0,0.5 -0.4,1 -0.4,1.1 0.4,2.2 0.8,4 1.1,6 0.4,-0.1 0.8,-0.2 1.2,-0.3 -1,-1.7 -0.7,-3.3 -0.4,-4.9 -0.4,3.6 2.5,6.5 1.9,10.3 1.7,1.7 3.5,3.5 5.2,5.2 1.1,0 1.8,0 2.7,0 0.7,0.9 1.5,1.8 2.5,2.9 0.6,0.3 1.6,0.8 2.6,1 1.3,0.3 1.6,1.5 2.4,1.9 0.1,0.6 0.1,1.2 0.4,1.5 0.8,0.8 1.7,1.8 2.8,2.1 1,0.4 1.8,0.7 2.6,1.4 0.1,0.1 0.3,-0.1 0.6,-0.1 -0.2,-0.3 -0.3,-0.5 -0.4,-0.7 0.2,-0.3 0.5,-0.6 0.8,-1 1.3,1.7 2.7,3.3 2.5,5.5 -1.3,1.6 -2.5,3.1 -2.9,5.1 0.4,0.5 0.8,0.9 1.2,1.3 -0.9,0.8 -0.5,1.6 -0.4,2.5 0.5,0.2 1.2,0.3 1.4,0.7 0.5,1.4 2,2 2.6,3.2 0.6,1.2 2.3,1.4 2.5,2.9 0,0.2 0.5,0.4 0.9,0.6 1.3,0.6 2.6,1.1 3.9,1.7 1.1,0.5 2.3,1.1 2.7,2.3 0.4,1.2 0.8,2.4 0.8,3.6 0.1,1.6 0,3.1 1.4,4.3 -0.3,0.4 -0.5,0.7 -0.7,1 0.2,0.7 0.2,1.5 0.6,2.1 0.7,1.1 1,2.9 3,2.7 1.4,1.2 3.1,0.3 4.6,0.6 0.1,0 0.2,-0.2 0.3,-0.4 -0.4,-0.1 -0.7,-0.3 -1,-0.4 0.3,-0.9 0.6,-1.7 0.9,-2.5 -0.2,-0.2 -0.3,-0.3 -0.5,-0.4 1.9,-0.9 4.1,-0.9 5.7,-2.3 -0.3,-0.3 -0.4,-0.4 -0.6,-0.6 0.9,-0.5 1.9,-0.9 2.8,-1.4 1.8,-1 3.4,-2.5 4,-4.4 0.4,-1.2 0.9,-1.9 1.9,-2.5 0.9,-0.5 1.6,-1.1 2.6,-1.3 0.8,-0.2 1.5,-0.8 2.1,-1.9 1.2,-2.2 1.7,-4.4 1.5,-6.5 1,-1.6 1.9,-2.9 2.8,-4.3 0,-1.1 0,-2.3 0,-3.6 -1,0 -2,0.1 -2.9,0 -0.7,-0.2 -1.4,-1 -2.1,-1 -0.8,-0.1 -1.7,0.3 -2.6,0.5 -0.4,0.1 -0.8,0.1 -1.1,0 -0.8,-0.2 -1.6,-0.4 -2.3,-0.5 -0.8,-0.1 -1.7,0.1 -2.6,-0.1 -0.8,-0.1 -1.5,-0.5 -2.2,-0.8 0,-0.4 0,-0.8 0,-1.2 -0.4,-0.2 -0.8,-0.4 -1.3,-0.6 0,-0.4 0,-0.9 0,-1 -1,-0.5 -1.8,-0.9 -2.9,-1.5 -1.1,0 -2.6,0 -4.2,0 -0.8,-0.6 -1.6,-1.6 -2.5,-1.6 -1.8,0 -1.7,-1.3 -2.1,-2.5 -0.2,0.5 -0.4,0.9 -0.6,1.3 -0.2,-0.4 -0.4,-0.8 -0.6,-1.3 -0.9,0.5 -1.8,0.9 -2.2,1.1 -2.1,-0.5 -4,-0.5 -5.5,-1.6 -0.1,0 -0.2,0 -0.3,0 -0.2,0.4 -0.4,0.8 -0.6,1.2 -0.3,-0.1 -0.6,-0.2 -0.8,-0.3 0.2,-0.3 0.4,-0.5 0.9,-1.2 -1.8,0.7 -3,1.2 -4.3,1.7 0,0.3 -0.1,0.8 -0.1,1.2 -0.6,0.3 -1.2,0.5 -1.7,0.8 -0.7,-0.4 -1.4,-0.7 -1.6,-0.9 -1.1,0.2 -1.8,0.3 -2.4,0.4 -0.8,-0.8 -1.4,-1.4 -2.3,-2.3 0.2,-1.1 0.3,-2.5 0.5,-4 -0.5,-0.3 -1.2,-0.8 -2.1,-1.3 -0.8,0 -1.8,0 -2.9,0 0.6,-1.9 1.2,-3.7 1.8,-5.5 -1.3,0 -2.3,0 -3.5,0 -0.3,0.7 -0.6,1.5 -0.8,2.1 -1.1,0 -2.1,0 -3.2,0 C 45,90.4 44.5,89.8 44.3,89 44,88.3 44,87.4 43.8,86.5 c 1,-1.8 0.1,-4.7 2.9,-6.2 1.4,0.4 3,0.8 4.7,1.2 0.1,-0.3 0.3,-0.7 0.6,-1.2 1.4,0.3 2.8,0.6 4.3,0.9 -0.4,2 0.6,3.5 1.5,5.1 0.3,-0.2 0.6,-0.3 0.8,-0.4 0.3,-0.2 0.4,-0.5 0.6,-0.8 -0.4,-1.6 -0.8,-3.1 -1.2,-4.5 0.3,-1.4 1.1,-2.2 2.3,-2.8 1.1,-0.6 2,-1.5 3,-2.3 -0.3,-0.7 -0.5,-1.2 -0.6,-1.5 0.5,-1 1,-2 1.5,-2.9 0.6,-1.1 1.5,-1.8 2.9,-1.7 0,-0.8 0,-1.3 0,-2.1 0.9,-0.4 1.9,-0.8 2.8,-1.2 0.1,-0.2 0.2,-0.3 0.4,-0.5 0.1,0.1 0.1,0.1 0.2,0.2 -0.2,0.1 -0.3,0.3 -0.5,0.4 l -0.1,-0.1 c 0.3,0.4 0.5,0.8 0.7,1.1 1.3,-0.8 2.6,-1.6 3.8,-2.3 0,-0.6 0,-1 0,-1.5 -1.1,0.7 -2.2,0.5 -3.4,0.4 0.2,-0.8 0.4,-1.5 0.6,-2.2 -0.5,0 -1.1,0 -2,0 0.7,-0.6 1.1,-0.9 1.8,-1.4 0.1,0.7 0.2,1.1 0.3,1.4 0.5,0 1.1,-0.1 2,-0.2 -0.8,-0.3 -1.1,-0.5 -2,-0.8 1.3,-0.1 2,-0.1 3,-0.2 0.1,-0.2 0.4,-0.7 0.6,-1.2 0.1,0.1 0.3,0.2 0.4,0.3 -0.2,1 -0.4,2 -0.7,3.3 0.7,0 1.3,0.1 1.8,0 0.5,-0.1 0.7,1.1 1.4,0.2 0.1,-0.1 0.8,0.3 1.4,0.5 0.7,-2.5 -1.7,-2.6 -2.7,-3.9 0,-0.9 0,-1.9 0,-2.7 -0.7,-0.5 -1.1,-1 -1.7,-1.3 -0.5,-0.3 -1.2,-0.4 -1.6,-0.5 -0.1,-1.7 -1.4,-2.6 -2.2,-4.2 -0.7,0.7 -1.3,1.3 -1.9,1.9 -0.9,-0.8 -0.6,-2.6 -1.8,-3 -1.1,0 -2,0 -2.8,0 0,0.7 0,1.3 0,1.8 -0.4,0.5 -0.9,0.9 -1.2,1.3 0.4,1 1.5,1.7 0.1,2.4 -0.2,0.2 -0.4,0.4 -0.6,0.6 -0.9,1 -0.4,2.3 -0.6,3.2 -0.4,0.4 -0.6,0.6 -0.8,0.8 l -0.1,-0.1 c -0.2,-0.9 -0.4,-1.7 -0.5,-2.5 0.1,-0.4 0.3,-0.8 0.5,-1.3 -2.3,0.2 -2.9,-2 -4.6,-2.4 0,-0.9 0,-1.8 0,-2.9 1.3,-0.9 2.8,-1.9 4.1,-2.8 0.7,0.5 1.1,0.8 1.6,1.1 0.3,-1.6 1.3,0.4 1.8,-0.5 -0.4,-0.5 -0.8,-1 -1.3,-1.8 1.5,-0.4 2.2,-1.5 2.5,-2.8 0.5,-0.2 1,-0.4 1.6,-0.7 -0.1,0.8 -0.3,1.5 -0.4,2.4 0.5,-0.2 1,-0.4 2,-0.9 -1,1.1 -1.5,1.8 -2,2.4 -0.4,0 -0.9,0 -1.5,0.1 0.2,0.5 0.3,0.8 0.4,1.3 0.5,-0.3 0.9,-0.5 1.1,-0.6 1.2,0.8 2.2,1.6 2.9,2 0.9,-0.6 1.5,-1 2.1,-1.4 -0.3,-0.6 -0.5,-1 -0.7,-1.3 -0.2,-0.1 -0.3,-0.2 -0.5,-0.4 0.1,-0.1 0.1,-0.1 0.2,-0.2 0.1,0.2 0.3,0.3 0.4,0.5 l -0.1,0.1 c 1,0.1 1.5,-0.5 1.8,-1.4 -0.8,-0.6 -1.6,-1.1 -2.4,-1.7 0,-0.4 0,-0.9 0,-0.8 -1.1,-1.1 -1.8,-1.9 -2.9,-2.9 -0.5,0 -1.4,0 -2.3,0 -0.2,0 -0.3,-0.4 -0.5,-0.5 -0.2,-0.1 -0.3,-0.2 -0.5,-0.4 0.1,-0.1 0.1,-0.1 0.2,-0.2 0.1,0.2 0.3,0.3 0.4,0.5 L 65,39.9 c 1.2,-0.1 2.3,0.1 3.5,-0.2 -0.3,-0.3 -0.4,-0.5 -0.5,-0.6 0.9,-0.7 1.9,-1.4 2.8,-2.3 0.4,-0.3 0.7,-0.3 1.1,-0.3 0,0.1 0,0.2 0.1,0.4 -0.4,0.1 -0.7,0.1 -1.1,0.2 0,-0.2 0,-0.3 0,-0.3 0,0.8 0,1.3 0,2 1,0 1.9,0 2.8,0 0.4,0.8 1.1,1.6 1.1,2.4 0,1.4 1.3,1.4 1.9,1.9 -0.8,1.8 -0.9,1.8 -0.1,3.1 0.7,1.1 1.4,2.1 2.3,3.1 1.2,1.2 2.5,1.2 3.9,0.2 0.1,-0.1 0.1,-0.3 0.2,-0.5 -0.2,-0.4 -0.4,-0.8 -0.7,-1.2 0.2,-0.3 0.4,-0.5 0.4,-0.5 -0.1,-0.8 -0.3,-1.4 -0.4,-1.8 0.7,-0.5 1.3,-0.8 1.8,-1.2 0,-0.7 0,-1.3 0,-1.9 1.6,-0.2 1.6,-1.6 2.3,-2.6 -0.9,-0.6 -1.7,-1.2 -2.5,-1.8 0.2,-0.2 0.4,-0.4 0.4,-0.5 -0.8,-2.1 -3.6,-2.1 -4.1,-4.5 -0.6,0.2 -1.2,0.3 -1.8,0.5 -0.5,-0.7 -1.4,-0.3 -1.7,-0.4 -1.4,0.7 -2.4,1.1 -3.1,1.5 -0.6,-0.2 -0.9,-0.4 -1.2,-0.4 -1.2,0.1 -2.4,0.2 -3.5,0.6 -0.7,0.2 -1.4,0.8 -1.9,1.2 -0.1,0.8 -0.2,1.5 -0.3,2.7 -0.5,-0.6 -0.7,-0.9 -0.9,-1.1 -0.3,0.4 -0.6,0.7 -0.8,1 -0.3,-0.4 -0.7,-0.7 -1.1,-1.1 -0.1,0.1 -0.3,0.2 -0.4,0.2 0.1,0.7 0.3,1.4 0.4,2.3 -1.5,-0.3 -2.9,-0.6 -4.3,-0.9 0.1,-0.3 0.3,-0.5 0.4,-0.7 -0.3,-0.5 -0.5,-0.9 -0.7,-1.3 -0.9,0.5 -1.8,0.9 -2.6,1.3 0,0.6 0,1.2 0,1.7 -0.3,0.3 -0.6,0.6 -0.8,0.8 -0.4,-0.8 -0.8,-1.5 -1.2,-2.4 -0.4,0 -0.9,0 -1.3,0 0.6,-1.5 1.2,-2.8 1.8,-4.4 -0.7,-0.2 -1.3,-0.4 -1.8,-0.6 0,0.9 -0.7,0.5 -1.1,0.6 -0.1,0.2 -0.2,0.3 -0.4,0.5 -0.1,-0.1 -0.1,-0.1 -0.2,-0.2 0.2,-0.1 0.3,-0.3 0.5,-0.4 l 0.1,0.1 c 0,-0.9 0.7,-0.5 1.1,-0.6 0.6,-0.6 1,-1.3 1.7,-1.7 1.4,-0.8 2.7,-1.8 4.1,-2.6 2.7,-1.6 5.5,-2.9 8.7,-3.2 0.8,-0.1 1.6,-0.6 3,-1.1 0.6,0 1.8,0.3 2.8,-0.1 1,-0.4 1.7,-0.6 2.8,-0.2 1,0.4 1.5,1.1 1.9,2.3 0.6,-0.5 1,-0.8 1.4,-1.1 -0.2,-0.3 -0.4,-0.5 -0.6,-0.8 2.9,0 5.6,0 8.5,0 1.2,1.5 3.1,0.9 4.8,1.3 -1.7,0.2 -3.4,0.8 -5,-0.2 -0.3,-0.2 -0.8,0.1 -1.5,0.1 0.8,0.4 1.2,0.6 1.6,0.8 1.9,0.3 3.7,0.5 5.3,0.7 0.3,-0.6 0.5,-0.9 0.7,-1.4 1.3,1.1 2.4,2 3.4,2.8 -0.4,0.5 -0.9,1 -1.4,1.6 -0.4,0 -0.9,0 -1.5,0 0.2,0.7 0.3,1.2 0.5,1.7 0.3,0.6 0.8,1.2 1.3,1.6 0.6,0.6 1.2,1.3 1.9,1.5 1.8,0.6 1.9,2.2 2.3,3.5 1.4,0.8 2.6,1.6 4.2,1.9 0.1,-0.6 0.3,-1.2 0.4,-1.8 0.4,0.1 0.7,0.2 0.9,0.3 -0.2,0.3 -0.4,0.5 -0.5,0.6 0.3,0.5 0.5,1 0.7,1.3 0.8,0.4 1.5,0.7 2.3,1.1 -0.3,0.4 -0.5,0.7 -0.7,1.1 0.4,0.8 1.1,1.5 1,2.7 -1.7,-1.8 -3.8,-1.4 -5.6,-2.1 -0.1,-0.3 -0.1,-0.5 -0.2,-0.7 -0.7,-0.2 -1.3,-0.5 -2,-0.7 0,0 -0.1,0.1 -0.2,0.2 0,0.6 0,1.1 0,1.7 0.6,0.4 1.1,0.7 1.8,1.1 -0.9,0.8 -0.6,1.6 -0.5,2.4 0.4,0.2 0.8,0.2 1,0.4 0.2,0.3 0.3,0.7 0.5,1 1.4,-0.5 1.4,-1.4 1.4,-2.4 -0.7,-0.3 -1.5,-0.5 -1,-1.8 0.5,0.7 0.8,1.2 1,1.8 0.7,0.4 1.6,0.7 1.9,1.8 0.5,-0.5 0.8,-0.9 1.3,-1.3 0.4,-0.3 0.6,-0.9 1.4,-0.9 -0.5,1.4 -0.9,2.6 -1.3,3.9 1.1,0 2,0 2.2,0 1,1 1.6,1.6 2.2,2.2 -1,0.8 -2.1,1.7 -3.3,2.7 2.2,1.1 2.1,3.9 4.3,4.9 0.5,-0.2 0.9,-0.4 1.5,-0.6 0.2,0.2 0.5,0.5 0.7,0.7 0,1.5 0,3 0,4.3 0.5,1 0.9,1.8 1.3,2.7 -0.4,0.8 -0.9,1.6 -1.2,2.3 0,2.7 0,5.4 0,8 2.3,1.5 2.4,3.8 2.3,5.7 0.6,1.3 1,2.2 1.5,3.1 1.5,-0.2 2.4,1 3.2,1.7 1.6,1.3 3.3,1.8 5,1.7 1.5,-1.2 3,-2.1 4.1,-3.3 1.1,-1.2 2,-2.8 2.8,-4 0.8,0.2 1.4,0.4 1.8,0.5 0.5,-0.6 0.9,-0.9 1.6,-1.6 0,2.1 0,3.7 0,5 0.9,1.4 1.7,2.7 2.2,3.5 0.9,4.9 -1,9.2 -1,13.6 0,0.2 -0.3,0.5 -0.4,0.7 -0.1,0.7 -0.1,1.4 -0.2,2.1 1.1,-2.5 2.9,-4.7 2.9,-7.6 1.5,-3.1 1.6,-6.6 2.2,-9.9 -0.5,-2.6 -1.1,-12.8 -1.6,-16 z M 35.6,76.3 c -0.1,0 -0.2,0 -0.4,0 0,-0.7 -0.1,-1.4 -0.1,-2.1 0.2,0 0.3,0 0.5,0 0,0.7 0,1.4 0,2.1 z M 60.2,65 c 0,0.3 0,0.6 0.1,1.1 -0.4,-0.2 -0.7,-0.4 -1,-0.6 -0.1,0.6 -0.1,1.1 -0.2,1.6 -0.1,0 -0.2,0 -0.3,0 0,-0.7 -0.1,-1.4 -0.1,-2.1 0.4,0 0.9,0 1.5,0 z M 84.3,39.4 c 0.2,0 0.4,0 0.6,0 0,0.1 0,0.1 0,0.2 -0.2,0 -0.4,0 -0.6,0 0,-0.1 0,-0.1 0,-0.2 z m -21.8,2.4 c 0.4,-0.4 0.6,-0.6 0.8,-0.8 0.1,0.1 0.3,0.2 0.3,0.3 0.1,0.8 0.2,1.5 0.3,2.4 -0.1,0.1 -0.3,0.3 -0.7,0.7 -0.1,-0.5 -0.2,-0.9 -0.3,-1.4 -0.2,0.2 -0.4,0.3 -0.5,0.5 0.1,-0.6 0.1,-1.1 0.1,-1.7 z m -2.8,0.8 c 0.1,-0.8 0.3,-1.5 0.6,-2.6 0.5,0.8 0.7,1.3 1.1,1.9 -0.5,0.3 -1.1,0.5 -2,1 0.3,-0.1 0.3,0.2 0.3,0.7 -0.5,0 -1.1,0.1 -2.3,0.2 1.2,-0.6 1.7,-0.9 2.3,-1.2 z m -5.1,25.5 c 0.2,-0.1 0.3,-0.3 0.5,-0.4 0,0 0,0 0.1,0.1 -0.1,0.2 -0.2,0.4 -0.3,0.5 -0.2,0 -0.3,-0.1 -0.3,-0.2 z m 0.6,-0.4 v 0 c 0,-0.5 0,-1 0,-1.6 0.5,1 0.5,1 0,1.6 z m 1.6,-2.3 c -0.4,0 -0.8,0 -1.1,0 0,-0.1 0,-0.2 0,-0.3 0.4,0 0.8,0 1.1,0 0,0.1 0,0.2 0,0.3 z M 56.4,42.6 c 0.1,0 0.1,0 0.2,0 0,0.2 0,0.4 0,0.6 -0.1,0 -0.1,0 -0.2,0 0,-0.2 0,-0.4 0,-0.6 z m 1,21.1 c -0.5,0 -0.9,0 -1.5,0 -0.1,-0.2 -0.1,-0.5 -0.3,-0.8 v 0 c 1.1,-0.7 1.2,-0.6 1.8,0.8 z m -2.6,-1.1 c -0.4,0.4 -0.9,0.5 -1.4,0.6 0,-0.1 0,-0.3 0,-0.4 0.5,0 0.9,-0.1 1.4,-0.2 z m -2.4,-20 c 0.1,0 0.1,0 0.2,0 0,0.2 0,0.4 0,0.6 -0.1,0 -0.1,0 -0.2,0 0,-0.2 0,-0.4 0,-0.6 z m 50.1,-14.2 c 0,0.3 0,0.6 0,0.9 -0.1,0 -0.2,0 -0.3,0 -0.1,-0.3 -0.1,-0.6 -0.2,-0.9 0.1,0.1 0.3,0.1 0.5,0 z m -3.7,1.7 c 0.1,0 0.1,0 0.2,0 0,0.2 0,0.4 0,0.6 -0.1,0 -0.1,0 -0.2,0 0,-0.3 0,-0.5 0,-0.6 z m -0.7,2.3 c 0,-0.2 0,-0.3 0,-0.5 0.3,0 0.6,0 0.9,0 0,0.1 0,0.2 0,0.3 -0.2,0 -0.5,0.1 -0.9,0.2 z m 1.6,1.5 c -0.2,0 -0.4,0 -0.6,0 0,-0.1 0,-0.1 0,-0.2 0.2,0 0.4,0 0.6,0 0,0 0,0.1 0,0.2 z m 0.4,-5 c -0.1,0 -0.1,0 -0.2,0 0,-0.2 0,-0.4 0,-0.6 0.1,0 0.1,0 0.2,0 0,0.2 0,0.4 0,0.6 z m 1,5.8 c 0.1,0.2 0.3,0.3 0.4,0.5 0,0 0,0 -0.1,0.1 v 0 c -0.2,-0.1 -0.4,-0.2 -0.5,-0.3 0.1,-0.2 0.1,-0.3 0.2,-0.3 z m 4.7,5.7 c -0.1,0 -0.1,0 -0.2,0 0,-0.2 0,-0.4 0,-0.6 0.1,0 0.1,0 0.2,0 0,0.2 0,0.4 0,0.6 z m 1.5,1.6 c -0.1,-1.4 -0.2,-2.2 -0.2,-3.1 -1.1,-0.8 -2.2,-1.6 -3.2,-2.4 -0.5,-0.2 -1,-0.3 -1.4,-0.4 0,-0.1 0.1,-0.2 0.1,-0.3 -0.4,-0.1 -1,0.2 -1.1,-0.5 0.5,0 1.1,-0.3 1.1,0.5 0.5,0 0.9,0 1.6,0 0.1,-0.6 0.2,-1.1 0.3,-1.7 0.1,0 0.2,0 0.3,0 0,0.4 0.1,0.9 0.1,1.3 1.1,0.9 2.1,1.9 3.3,2.9 0.5,1.1 -0.3,2.1 -0.9,3.7 z m 9.8,-7.4 c 0.1,0 0.1,0 0.2,0 0,0.2 0,0.4 0,0.6 -0.1,0 -0.1,0 -0.2,0 0,-0.2 0,-0.4 0,-0.6 z m 0,4.7 c 0.1,0.2 0.3,0.3 0.4,0.5 l -0.1,0.1 c 0.4,-0.1 0.8,-0.1 1.2,-0.1 -0.3,-0.5 -0.5,-0.8 -0.7,-1.3 0.3,-0.1 0.6,-0.3 0.8,-0.3 1.2,-0.2 1.5,0.9 2.3,1.5 -0.2,0.4 -0.4,0.8 -0.7,1.2 0.2,0.6 0.4,1.2 0.6,2.1 -1.9,-0.5 -2.4,-2.1 -4,-3 0.2,-0.1 0.1,-0.3 -0.1,-0.4 0.2,-0.2 0.2,-0.3 0.3,-0.3 z m 0.2,7.1 c 0.9,-0.5 2,-0.8 3,0.7 -1.3,0 -2.6,0 -3.9,0 -0.3,-0.3 -0.5,-0.5 -1,-1 0.8,0.2 1.3,0.2 1.9,0.3 z m 9.7,7.4 c -1.2,0.5 -2.6,1 -4.1,1.6 -0.4,-0.9 -0.8,-1.7 -1.2,-2.5 -0.3,0 -0.7,0 -0.9,0 -0.9,1.1 -1.8,2.1 -2.7,3.1 -0.3,1.1 -0.5,2.1 -1,3.1 -0.3,0.6 -1,1 -1.7,1.5 -0.2,-0.5 -0.3,-0.7 -0.5,-1.1 0.5,-0.3 0.9,-0.6 1.2,-0.8 0,-1 0,-1.8 0,-2.7 -0.3,-0.3 -0.8,-0.6 -1,-0.8 -0.4,-1.4 0.4,-2.8 -0.7,-3.7 0.3,-1 0.5,-2.1 0.8,-3.1 0.2,0 0.4,0 0.7,0 0.1,0.5 0.2,1 0.3,1.7 0.3,0 0.7,0 1,0 -0.2,-0.3 -0.3,-0.6 -0.6,-1.1 1.6,-0.1 3.1,-0.4 4.6,0.5 0,-0.3 0,-0.6 0,-0.9 -0.4,-0.2 -0.8,-0.4 -1.2,-0.5 0.2,-0.2 0.4,-0.4 0.8,-0.8 1,0.2 1.9,1.5 3.3,0.9 -0.8,-1.3 -2.1,-1.8 -3.2,-3.3 1.5,0.6 2.5,1 3.6,1.4 0.1,-0.8 0.2,-1.3 0.3,-2.2 1.2,1.4 2.3,2.5 3.4,3.7 -0.3,0.4 -0.5,0.6 -0.7,0.7 0.2,0.3 0.4,0.5 0.8,1 -0.6,0.5 -1.2,0.9 -2,1.5 0.4,0.8 0.6,1.7 0.7,2.8 z m 5.7,-2.1 c -0.1,-0.2 -0.3,-0.3 -0.4,-0.5 l 0.1,-0.1 c -0.3,0 -0.4,-0.1 -0.6,-0.3 0.1,-0.1 0.1,-0.1 0.2,-0.2 0.1,0.2 0.3,0.3 0.4,0.5 l -0.1,0.1 c 0.3,0 0.4,0.1 0.6,0.3 -0.1,0.1 -0.2,0.2 -0.2,0.2 z m 6.6,21.7 c 0,-0.1 0,-0.2 0,-0.3 0.3,-0.1 0.6,-0.1 0.9,-0.2 0,0.2 0,0.3 0.1,0.5 -0.4,0 -0.7,0 -1,0 z"
           id="path3828"
           inkscape:connector-curvature="0"
           style="fill:#522a17" /></g><path
         class="st3"
         d="m 60.9,91.7 c -0.5,-2.6 -3.2,-2 -4.5,-3.4 -0.1,0.5 -0.1,0.7 -0.2,1.1 -0.5,-0.2 -1,-0.4 -1.9,-0.8 0.5,-0.2 0.8,-0.3 1.2,-0.4 -0.1,-0.1 -0.2,-0.2 -0.2,-0.3 1.2,0 2.4,0 3.7,0 1.7,1 3.4,2 5.4,3.2 -0.4,0 -0.8,0 -1.2,0 0.2,0.2 0.4,0.4 0.5,0.7 -0.9,-0.1 -1.7,-0.1 -2.8,-0.1 z"
         id="path3832"
         inkscape:connector-curvature="0"
         style="fill:#522a17" /><path
         class="st3"
         d="m 64.3,93.4 c 0,-0.3 0,-0.6 0,-0.8 0.4,-0.1 0.7,-0.3 1.1,-0.4 -0.2,-0.2 -0.4,-0.4 -0.7,-0.8 1.1,-0.1 2.1,-0.1 3.1,-0.2 0.7,0.5 1.5,0.9 2.6,1.6 -2.3,0.1 -4.1,1.2 -6.1,0.6 z"
         id="path3834"
         inkscape:connector-curvature="0"
         style="fill:#522a17" /><path
         class="st3"
         d="m 91.5,43.1 c -1.4,0.3 -2.6,0 -3.7,-0.7 0.9,-0.7 1.7,-1.4 2.5,-2 0.6,0.4 1.3,0.8 1.9,1.2 -0.2,0.6 -0.5,1.1 -0.7,1.5 z"
         id="path3836"
         inkscape:connector-curvature="0"
         style="fill:#522a17" /><path
         class="st3"
         d="m 62,36.9 c 0.2,0 0.4,0 0.5,0 0,0.5 0,0.9 0,1.6 -0.7,0 -1.4,0.1 -2.2,0.1 0,-0.7 0,-1.4 0,-2.1 0.3,-0.2 0.7,-0.5 1.3,-1.1 0.2,0.7 0.3,1.1 0.4,1.5 v 0 c -0.2,0 -0.4,0.2 -0.5,0.3 0.1,0.1 0.1,0.1 0.2,0.2 0.1,-0.1 0.2,-0.3 0.3,-0.5 z"
         id="path3838"
         inkscape:connector-curvature="0"
         style="fill:#522a17" /><path
         class="st3"
         d="m 83.8,31.7 c 0,-0.5 0,-1 0,-1.7 0.5,0.2 1,0.3 1.5,0.5 0.1,-0.1 0.4,-0.3 0.9,-0.7 0.4,0.7 0.7,1.2 1,1.9 -1.2,0 -2.3,0 -3.4,0 z"
         id="path3840"
         inkscape:connector-curvature="0"
         style="fill:#522a17" /><path
         class="st3"
         d="m 64.7,36.1 c 0.8,0.2 1.7,0.5 0.9,1.6 -0.3,-0.6 -0.6,-1.1 -0.9,-1.6 z"
         id="path3842"
         inkscape:connector-curvature="0"
         style="fill:#522a17" /><path
         class="st3"
         d="m 63.1,55.8 c -0.8,-0.2 -0.8,-0.7 -0.3,-1.1 0.3,-0.3 0.9,-0.2 0.9,0.5 -0.2,0.2 -0.4,0.4 -0.6,0.6 z"
         id="path3844"
         inkscape:connector-curvature="0"
         style="fill:#522a17" /><path
         class="st3"
         d="m 71.2,93.1 c 0,0 0,-0.3 0,-0.6 0.4,0 0.7,0 1,0 0.1,0.1 0.1,0.2 0.2,0.2 -0.5,0.2 -0.9,0.3 -1.2,0.4 z"
         id="path3846"
         inkscape:connector-curvature="0"
         style="fill:#522a17" /><path
         class="st3"
         d="m 61.9,93.4 c -0.5,0 -1,0 -1.5,0 0,-0.1 0,-0.2 0,-0.3 0.5,-0.1 1,-0.1 1.5,-0.2 -0.1,0.2 0,0.4 0,0.5 z"
         id="path3848"
         inkscape:connector-curvature="0"
         style="fill:#522a17" /><path
         class="st3"
         d="m 63.2,35.5 c -0.2,0.7 -0.3,1 -0.4,1.4 -0.1,-0.3 -0.2,-0.5 -0.2,-0.8 -0.1,-0.1 0.2,-0.2 0.6,-0.6 z"
         id="path3850"
         inkscape:connector-curvature="0"
         style="fill:#522a17" /><ellipse
         class="st3"
         cx="60.5"
         cy="86.699997"
         rx="0.2"
         ry="0.80000001"
         id="ellipse3852"
         style="fill:#522a17" /><path
         class="st3"
         d="m 62.6,48.9 c 0.2,0.1 0.3,0.3 0.5,0.4 -0.1,0.1 -0.1,0.1 -0.2,0.2 -0.1,-0.2 -0.3,-0.3 -0.3,-0.6 -0.1,0 0,0 0,0 z"
         id="path3854"
         inkscape:connector-curvature="0"
         style="fill:#522a17" /><path
         class="st3"
         d="m 40.8,50.6 c -0.2,-0.1 -0.3,-0.3 -0.5,-0.4 0.2,-0.1 0.3,-0.1 0.5,-0.2 0,0.3 0,0.5 0,0.6 z"
         id="path3856"
         inkscape:connector-curvature="0"
         style="fill:#522a17" /><ellipse
         class="st3"
         cx="64"
         cy="49.799999"
         rx="0.40000001"
         ry="0.1"
         id="ellipse3858"
         style="fill:#522a17" /><path
         class="st3"
         d="m 121.6,49.3 c 0.4,0.9 0.7,1.5 1.1,2.3 -0.5,0.1 -0.8,0.2 -1.1,0.2 -0.3,0 -0.5,-0.1 -0.9,-0.2 0.4,-0.8 0.6,-1.4 0.9,-2.3 z"
         id="path3860"
         inkscape:connector-curvature="0"
         style="fill:#522a17" /><path
         class="st3"
         d="m 117.5,49.8 c 0.6,0.8 1.6,1.2 1.5,2.4 -0.6,-0.6 -1.8,-0.8 -1.5,-2.4 z"
         id="path3862"
         inkscape:connector-curvature="0"
         style="fill:#522a17" /><ellipse
         class="st3"
         cx="125.2"
         cy="48.400002"
         rx="0.2"
         ry="0.80000001"
         id="ellipse3864"
         style="fill:#522a17" /><ellipse
         class="st3"
         cx="116.6"
         cy="53.799999"
         rx="0.1"
         ry="0.40000001"
         id="ellipse3866"
         style="fill:#522a17" /></g></g></svg>